# xmcd
#
# Track frame offsets:
#	150
#	16945
#	31384
#	46239
#	65115
#	78898
#	94724
#	113858
#	132117
#	144128
#	159024
#	181761
#	198257
#
# Disc length: 2850 seconds
#
# Revision: 0
# Processed by: cddbd v1.5.2PL0 Copyright (c) Steve Scherf et al.
# Submitted via: EZCDAudioConverter 2.4.0.1
#
DISCID=970b200d
DTITLE=Guylaine Tanguay - Inspiration Country
DYEAR=2015
DGENRE=Country POP
TTITLE0=Guylaine Tanguay -  Jusqu'au bout du monde
TTITLE1=Guylaine Tanguay -  Colinda
TTITLE2=Guylaine Tanguay - Crazy Arms/Dans tes bras
TTITLE3=Guylaine Tanguay duo avec Mario Pelchat - Islands In The Stream
TTITLE4=Guylaine Tanguay - Thank God I'm A Country Girl
TTITLE5=Guylaine Tanguay - Je voudrasi être Madelinot
TTITLE6=Guylaine Tanguay duo avec Julie Daraiche - Que la lune est belle ce so
TTITLE6=ir
TTITLE7=Guylaine Tanguay - Me And Bobby McGee
TTITLE8=Guylaine Tanguay - La fête en Acadie
TTITLE9=Guylaine Tanguay - Crazy
TTITLE10=Guylaine Tanguay duo avec Michel Rivard -  Je voudrais voir la mer
TTITLE11=Guylaine Tanguay duo avec Christian-Marc Gendron - Embarque ma belle
TTITLE12=Guylaine Tanguay DUO avec Camille Tanguay - You Are My Sunshine
EXTD=
EXTT0=
EXTT1=
EXTT2=
EXTT3=
EXTT4=
EXTT5=
EXTT6=
EXTT7=
EXTT8=
EXTT9=
EXTT10=
EXTT11=
EXTT12=
PLAYORDER=
